# xmcd
# 
# Track frame offsets:
#     182
#     14952
#     28457
#     46742
#     60867
#     75637
#     91175
#     104712
#     118555
#     133420
#     149957
#     165482
# 
# Disc length: 2404
# 
# Revision: 1
# Processed by: cddbd v1.5.2PL0 Copyright (c) Steve Scherf et al.
# Submitted via: BonkEnc v1.0beta4
# 
DISCID=ad09620c
DTITLE=PUPO - I GRANDI SUCCESSI VOL 2
DYEAR=0
DGENRE=Slow Jam
TTITLE0=GELATO AL CIOCCOLATO
TTITLE1=NON MI ARRENDEVO MAI
TTITLE2=SOGNO STRANIERO
TTITLE3=FORSE
TTITLE4=LA VITA E' MOLTO DI PIU' 
TTITLE5=LIDIA A MOSCA
TTITLE6=SEMPRE TU
TTITLE7=LUCIA
TTITLE8=FIRENZE SANTA MARIA NOVELLA
TTITLE9=VOLANO 
TTITLE10=NASHVILLE
TTITLE11=BRAVO
EXTD=
EXTT0=\n
EXTT1=
EXTT2=
EXTT3=
EXTT4=
EXTT5=
EXTT6=
EXTT7=
EXTT8=
EXTT9=
EXTT10=
EXTT11=
PLAYORDER=
